<?xml version="1.0" encoding="utf-8"?>
<!-- Generator: Adobe Illustrator 23.0.3, SVG Export Plug-In . SVG Version: 6.00 Build 0)  -->
<svg version="1.1" id="Layer_3" xmlns="http://www.w3.org/2000/svg" xmlns:xlink="http://www.w3.org/1999/xlink" x="0px" y="0px"
	 viewBox="0 0 4096 2160" style="enable-background:new 0 0 4096 2160;" xml:space="preserve">
<style type="text/css">
	.st0{fill:url(#SVGID_1_);}
</style>
<linearGradient id="SVGID_1_" gradientUnits="userSpaceOnUse" x1="261.8686" y1="1019.7135" x2="3747.4392" y2="1197.0016">
	<stop  offset="1.385225e-07" style="stop-color:#FFFFFF"/>
	<stop  offset="0.5709" style="stop-color:#6AAFFF"/>
</linearGradient>
<path class="st0" d="M1506.7,19.2l1225,2121.5h-105.9L1507.1,199.7L387.8,2140.6H281.7L1506.7,19.2z M770,2140.8h105.6l631.1-1092.6
	l631.2,1092.6h105.9L1506.7,867.9L770,2140.8z M3180.5,51.3C3327.4,79.6,3786,211,3814.3,748.2c0,534.6-446.3,686.9-446.3,686.9
	l403.8,705.6H3676l-433.7-764.3c0,0,463.7-61.8,487.8-628.6C3675.2,184.4,3176,136,3176,136H1798.3l-53.2-84.7
	C1745.1,51.3,3033.7,23,3180.5,51.3z M1989.4,475.3l52.8,85.1h1103.3c0,0,160.5,60.2,153.6,206.2c-6.9,146-135.7,204.4-135.7,204.4
	h-884.5l50.2,88.2h817.1c0,0,244.3-46.2,244.3-292s-244.7-292-244.7-292H1989.4z M2519.5,1398.4l53.1,84.2h231.9l383.4,658.1h95.3
	l-424-742.2H2519.5z"/>
</svg>
